<mxfile host="app.diagrams.net" modified="2021-05-13T17:42:08.069Z" agent="5.0 (Macintosh; Intel Mac OS X 10_15_7) AppleWebKit/537.36 (KHTML, like Gecko) Chrome/90.0.4430.93 Safari/537.36" etag="1f4oO4kL_XDSdzoxXs-1" version="14.6.13" type="github">
  <diagram id="f1tBtcJ50UlOxQukmI69" name="Page-1">
    <mxGraphModel dx="946" dy="557" grid="1" gridSize="10" guides="1" tooltips="1" connect="1" arrows="1" fold="1" page="1" pageScale="1" pageWidth="827" pageHeight="1169" math="0" shadow="0">
      <root>
        <mxCell id="0" />
        <mxCell id="1" parent="0" />
        <mxCell id="UIJCsC1O3rKOgPvQXzIZ-5" style="edgeStyle=none;rounded=0;orthogonalLoop=1;jettySize=auto;html=1;exitX=0.5;exitY=0;exitDx=0;exitDy=0;exitPerimeter=0;endArrow=none;endFill=0;strokeWidth=3;" edge="1" parent="1" source="UIJCsC1O3rKOgPvQXzIZ-1">
          <mxGeometry relative="1" as="geometry">
            <mxPoint x="230" y="100" as="targetPoint" />
          </mxGeometry>
        </mxCell>
        <mxCell id="UIJCsC1O3rKOgPvQXzIZ-7" style="edgeStyle=none;rounded=0;orthogonalLoop=1;jettySize=auto;html=1;exitX=0.5;exitY=1;exitDx=0;exitDy=0;exitPerimeter=0;endArrow=none;endFill=0;strokeWidth=3;" edge="1" parent="1" source="UIJCsC1O3rKOgPvQXzIZ-1">
          <mxGeometry relative="1" as="geometry">
            <mxPoint x="230" y="300" as="targetPoint" />
          </mxGeometry>
        </mxCell>
        <mxCell id="UIJCsC1O3rKOgPvQXzIZ-1" value="" style="pointerEvents=1;verticalLabelPosition=bottom;shadow=0;dashed=0;align=center;html=1;verticalAlign=top;shape=mxgraph.electrical.signal_sources.source;aspect=fixed;points=[[0.5,0,0],[1,0.5,0],[0.5,1,0],[0,0.5,0]];elSignalType=ac;strokeWidth=3;" vertex="1" parent="1">
          <mxGeometry x="200" y="180" width="60" height="60" as="geometry" />
        </mxCell>
        <mxCell id="UIJCsC1O3rKOgPvQXzIZ-6" style="edgeStyle=none;rounded=0;orthogonalLoop=1;jettySize=auto;html=1;exitX=0;exitY=0.5;exitDx=0;exitDy=0;endArrow=none;endFill=0;strokeWidth=3;" edge="1" parent="1" source="UIJCsC1O3rKOgPvQXzIZ-2">
          <mxGeometry relative="1" as="geometry">
            <mxPoint x="230" y="100" as="targetPoint" />
          </mxGeometry>
        </mxCell>
        <mxCell id="UIJCsC1O3rKOgPvQXzIZ-11" style="edgeStyle=none;rounded=0;orthogonalLoop=1;jettySize=auto;html=1;exitX=1;exitY=0.5;exitDx=0;exitDy=0;endArrow=none;endFill=0;strokeWidth=3;" edge="1" parent="1" source="UIJCsC1O3rKOgPvQXzIZ-2">
          <mxGeometry relative="1" as="geometry">
            <mxPoint x="560" y="100" as="targetPoint" />
          </mxGeometry>
        </mxCell>
        <mxCell id="UIJCsC1O3rKOgPvQXzIZ-2" value="" style="rounded=0;whiteSpace=wrap;html=1;strokeWidth=3;" vertex="1" parent="1">
          <mxGeometry x="350" y="80" width="120" height="40" as="geometry" />
        </mxCell>
        <mxCell id="UIJCsC1O3rKOgPvQXzIZ-12" style="edgeStyle=none;rounded=0;orthogonalLoop=1;jettySize=auto;html=1;exitX=0.46;exitY=0.5;exitDx=0;exitDy=0;exitPerimeter=0;endArrow=none;endFill=0;strokeWidth=3;" edge="1" parent="1" source="UIJCsC1O3rKOgPvQXzIZ-8">
          <mxGeometry relative="1" as="geometry">
            <mxPoint x="560" y="100" as="targetPoint" />
          </mxGeometry>
        </mxCell>
        <mxCell id="UIJCsC1O3rKOgPvQXzIZ-13" style="edgeStyle=none;rounded=0;orthogonalLoop=1;jettySize=auto;html=1;exitX=1;exitY=0.5;exitDx=0;exitDy=0;exitPerimeter=0;endArrow=none;endFill=0;strokeWidth=3;" edge="1" parent="1" source="UIJCsC1O3rKOgPvQXzIZ-8">
          <mxGeometry relative="1" as="geometry">
            <mxPoint x="560" y="300" as="targetPoint" />
          </mxGeometry>
        </mxCell>
        <mxCell id="UIJCsC1O3rKOgPvQXzIZ-8" value="" style="pointerEvents=1;verticalLabelPosition=bottom;shadow=0;dashed=0;align=center;html=1;verticalAlign=top;shape=mxgraph.electrical.capacitors.capacitor_1;rotation=90;strokeWidth=2;" vertex="1" parent="1">
          <mxGeometry x="510" y="180" width="100" height="60" as="geometry" />
        </mxCell>
        <mxCell id="UIJCsC1O3rKOgPvQXzIZ-17" style="edgeStyle=none;rounded=0;orthogonalLoop=1;jettySize=auto;html=1;endArrow=none;endFill=0;strokeWidth=3;" edge="1" parent="1">
          <mxGeometry relative="1" as="geometry">
            <mxPoint x="560" y="300" as="targetPoint" />
            <mxPoint x="230" y="300" as="sourcePoint" />
          </mxGeometry>
        </mxCell>
        <mxCell id="UIJCsC1O3rKOgPvQXzIZ-18" style="edgeStyle=none;rounded=0;orthogonalLoop=1;jettySize=auto;html=1;exitX=1;exitY=0.5;exitDx=0;exitDy=0;exitPerimeter=0;entryX=0.55;entryY=0.5;entryDx=0;entryDy=0;entryPerimeter=0;endArrow=none;endFill=0;strokeWidth=3;" edge="1" parent="1" source="UIJCsC1O3rKOgPvQXzIZ-8" target="UIJCsC1O3rKOgPvQXzIZ-8">
          <mxGeometry relative="1" as="geometry" />
        </mxCell>
      </root>
    </mxGraphModel>
  </diagram>
</mxfile>
